<svg width="40" height="40" viewBox="0 0 82 78" fill="none" xmlns="http://www.w3.org/2000/svg">
<path d="M71.2984 63.7403C75.3464 59.0487 78.1619 53.487 79.5066 47.5257C80.8513 41.5643 80.6856 35.3787 79.0237 29.492C77.3617 23.6054 74.2523 18.1909 69.9585 13.7066C65.6647 9.22233 60.3128 5.80018 54.3556 3.72966C48.3984 1.65914 42.0111 1.00115 35.7341 1.81136C29.4571 2.62158 23.4749 4.87615 18.2938 8.38437C13.1126 11.8926 8.88488 16.5512 5.96816 21.9662C3.05145 27.3812 1.53158 33.3932 1.53712 39.4936C1.53925 48.362 4.78361 56.9463 10.7009 63.7403L10.6445 63.7864C10.8418 64.0145 11.0673 64.21 11.2703 64.4354C11.524 64.715 11.7974 64.9784 12.0595 65.2499C12.8488 66.0753 13.6606 66.8682 14.5118 67.6122C14.7712 67.8402 15.0389 68.052 15.3011 68.2692C16.2031 69.0186 17.1304 69.73 18.0916 70.3925C18.2157 70.474 18.3284 70.5798 18.4524 70.664V70.6314C25.0542 75.1065 32.9298 77.5082 41.0024 77.5082C49.0751 77.5082 56.9506 75.1065 63.5524 70.6314V70.664C63.6765 70.5798 63.7864 70.474 63.9132 70.3925C64.8716 69.7273 65.8018 69.0186 66.7038 68.2692C66.966 68.052 67.2337 67.8375 67.4931 67.6122C68.3443 66.8655 69.1561 66.0753 69.9454 65.2499C70.2075 64.9784 70.4781 64.715 70.7346 64.4354C70.9347 64.21 71.1631 64.0145 71.3604 63.7837L71.2984 63.7403ZM40.9996 17.7721C43.5084 17.7721 45.9608 18.4887 48.0467 19.8313C50.1326 21.1739 51.7584 23.0821 52.7185 25.3147C53.6785 27.5473 53.9297 30.004 53.4403 32.3742C52.9508 34.7443 51.7428 36.9214 49.9688 38.6302C48.1949 40.3389 45.9348 41.5026 43.4742 41.9741C41.0137 42.4455 38.4633 42.2035 36.1455 41.2788C33.8278 40.354 31.8467 38.7879 30.453 36.7786C29.0592 34.7693 28.3153 32.407 28.3153 29.9905C28.3153 26.75 29.6516 23.6422 32.0304 21.3508C34.4092 19.0594 37.6355 17.7721 40.9996 17.7721ZM18.4694 63.7403C18.5183 60.1752 20.0223 56.7719 22.6562 54.2668C25.2901 51.7617 28.8419 50.3562 32.5434 50.3544H49.4559C53.1573 50.3562 56.7092 51.7617 59.343 54.2668C61.9769 56.7719 63.481 60.1752 63.5299 63.7403C57.3479 69.1064 49.3213 72.0761 40.9996 72.0761C32.6779 72.0761 24.6513 69.1064 18.4694 63.7403Z" fill="white"/>
</svg>
