<svg width="96" height="25" viewBox="0 0 96 25" fill="none" xmlns="http://www.w3.org/2000/svg">
<g filter="url(#filter0_d_290_2077)">
<path d="M31.3008 13.1406C33.1699 13.1406 34.4238 12.209 34.8105 10.5391H33.7441C33.4395 11.5703 32.5488 12.168 31.3066 12.168C29.6367 12.168 28.5762 10.8438 28.5762 8.76953C28.5762 6.71289 29.6484 5.37695 31.3008 5.37695C32.5078 5.37695 33.4746 6.10352 33.7441 7.21094H34.8105C34.541 5.52344 33.1406 4.4043 31.3008 4.4043C28.9863 4.4043 27.4922 6.11523 27.4922 8.76953C27.4922 11.4473 28.9688 13.1406 31.3008 13.1406ZM35.9531 13H36.9727V4.54492H35.9531V13ZM38.4023 13H39.4219V6.90625H38.4023V13ZM39.375 6.02734L40.8164 4.26953H39.7148L38.4844 6.02734H39.375ZM40.7988 13H41.8184V9.41406C41.8184 8.38281 42.4453 7.70312 43.4062 7.70312C44.3438 7.70312 44.8066 8.24219 44.8066 9.22656V13H45.8262V9.04492C45.8262 7.66211 45.0527 6.80078 43.7168 6.80078C42.7734 6.80078 42.123 7.22266 41.7832 7.87891H41.7598V6.90625H40.7988V13ZM47.1797 13H48.1992V6.90625H47.1797V13ZM47.6895 5.88086C48.041 5.88086 48.3281 5.59375 48.3281 5.24805C48.3281 4.89648 48.041 4.61523 47.6895 4.61523C47.3438 4.61523 47.0566 4.89648 47.0566 5.24805C47.0566 5.59375 47.3438 5.88086 47.6895 5.88086ZM54.6387 8.9043C54.5098 7.80859 53.6016 6.80078 52.0781 6.80078C50.3965 6.80078 49.2773 8.03125 49.2773 9.95312C49.2773 11.916 50.4023 13.1055 52.0898 13.1055C53.4727 13.1055 54.4922 12.25 54.6504 11.0371H53.6484C53.4727 11.7695 52.9277 12.209 52.0957 12.209C51.041 12.209 50.3145 11.3711 50.3145 9.95312C50.3145 8.57031 51.0293 7.69727 52.084 7.69727C52.9805 7.69727 53.4961 8.24219 53.6426 8.9043H54.6387ZM57.5977 12.2383C56.8652 12.2383 56.3789 11.8574 56.3789 11.2773C56.3789 10.7031 56.8477 10.3398 57.668 10.2871L59.2969 10.1875V10.6855C59.2969 11.5645 58.5586 12.2383 57.5977 12.2383ZM57.3691 13.1055C58.1895 13.1055 58.9629 12.6484 59.3262 11.9512H59.3496V13H60.3164V8.78711C60.3164 7.57422 59.4141 6.80078 57.9844 6.80078C56.543 6.80078 55.6406 7.60938 55.5703 8.66406H56.5547C56.6836 8.06641 57.1758 7.69727 57.9609 7.69727C58.8047 7.69727 59.2969 8.14258 59.2969 8.88672V9.39648L57.5508 9.49609C56.1445 9.57812 55.3418 10.2344 55.3418 11.2773C55.3418 12.373 56.1562 13.1055 57.3691 13.1055ZM64.2305 4.54492V13H65.2852V9.98242H67.2363C68.8242 9.98242 69.9551 8.86328 69.9551 7.25781C69.9551 5.6582 68.8359 4.54492 67.248 4.54492H64.2305ZM65.2852 5.48242H66.9727C68.1855 5.48242 68.8711 6.13867 68.8711 7.25781C68.8711 8.38281 68.1797 9.04492 66.9727 9.04492H65.2852V5.48242ZM73.1602 7.68555C74.1211 7.68555 74.7598 8.41211 74.7832 9.43164H71.4727C71.5371 8.41797 72.2051 7.68555 73.1602 7.68555ZM74.7598 11.2539C74.5898 11.8281 74.0215 12.2207 73.248 12.2207C72.1523 12.2207 71.4668 11.4531 71.4668 10.2871V10.2285H75.8379V9.8418C75.8379 7.99609 74.8242 6.80078 73.1777 6.80078C71.4961 6.80078 70.418 8.08398 70.418 9.97656C70.418 11.8926 71.4785 13.1055 73.2246 13.1055C74.5547 13.1055 75.5859 12.3203 75.7617 11.2539H74.7598ZM73.6406 6.02734L75.082 4.26953H73.9805L72.75 6.02734H73.6406ZM76.8691 13H77.8887V9.20312C77.8887 8.3418 78.4043 7.77344 79.1953 7.77344C79.4414 7.77344 79.6582 7.80273 79.7402 7.83203V6.8418C79.6582 6.83008 79.5059 6.80078 79.3301 6.80078C78.6152 6.80078 78.0527 7.22852 77.8535 7.90234H77.8301V6.90625H76.8691V13ZM82.7227 7.68555C83.6836 7.68555 84.3223 8.41211 84.3457 9.43164H81.0352C81.0996 8.41797 81.7676 7.68555 82.7227 7.68555ZM84.3223 11.2539C84.1523 11.8281 83.584 12.2207 82.8105 12.2207C81.7148 12.2207 81.0293 11.4531 81.0293 10.2871V10.2285H85.4004V9.8418C85.4004 7.99609 84.3867 6.80078 82.7402 6.80078C81.0586 6.80078 79.9805 8.08398 79.9805 9.97656C79.9805 11.8926 81.041 13.1055 82.7871 13.1055C84.1172 13.1055 85.1484 12.3203 85.3242 11.2539H84.3223ZM86.3027 13H90.8496V12.1621H87.4805V12.1445L90.832 7.65039V6.90625H86.3086V7.74414H89.6777V7.76172L86.3027 12.2734V13Z" fill="black"/>
</g>
<g filter="url(#filter1_d_290_2077)">
<path d="M7.83359 9.5C7.83359 6.81719 9.92274 4.64286 12.5005 4.64286C15.0782 4.64286 17.1673 6.81719 17.1673 9.5C17.1673 12.1828 15.0782 14.3571 12.5005 14.3571C9.92274 14.3571 7.83359 12.1828 7.83359 9.5ZM12.5005 12.5357C14.112 12.5357 15.4172 11.1772 15.4172 9.5C15.4172 7.82277 14.112 6.46429 12.5005 6.46429H12.3947C12.4749 6.65781 12.5005 6.86272 12.5005 7.07143C12.5005 8.41094 11.4541 9.5 10.167 9.5C9.96649 9.5 9.76961 9.47344 9.58366 9.38996V9.46585C9.58366 11.1772 10.8889 12.5357 12.5005 12.5357ZM5.47901 4.05848C7.19554 2.39795 9.5545 1 12.5005 1C15.4464 1 17.8054 2.39795 19.5226 4.05848C21.229 5.70536 22.3702 7.64442 22.9098 9.03326C23.0301 9.33304 23.0301 9.66696 22.9098 9.96674C22.3702 11.3214 21.229 13.2605 19.5226 14.9415C17.8054 16.6036 15.4464 18 12.5005 18C9.5545 18 7.19554 16.6036 5.47901 14.9415C3.77268 13.2605 2.63222 11.3214 2.08973 9.96674C2.0305 9.81885 2 9.66022 2 9.5C2 9.33978 2.0305 9.18114 2.08973 9.03326C2.63222 7.64442 3.77268 5.70536 5.47901 4.05848ZM12.5005 2.82143C10.1233 2.82143 8.16902 3.94464 6.67052 5.3904C5.26681 6.74888 4.29771 8.32746 3.80258 9.5C4.29771 10.6384 5.26681 12.2511 6.67052 13.6096C8.16902 15.0554 10.1233 16.1786 12.5005 16.1786C14.8776 16.1786 16.8319 15.0554 18.3304 13.6096C19.7341 12.2511 20.6711 10.6384 21.1998 9.5C20.6711 8.32746 19.7341 6.74888 18.3304 5.3904C16.8319 3.94464 14.8776 2.82143 12.5005 2.82143Z" fill="black"/>
</g>
<defs>
<filter id="filter0_d_290_2077" x="24.4922" y="2.26953" width="71.3574" height="16.8711" filterUnits="userSpaceOnUse" color-interpolation-filters="sRGB">
<feFlood flood-opacity="0" result="BackgroundImageFix"/>
<feColorMatrix in="SourceAlpha" type="matrix" values="0 0 0 0 0 0 0 0 0 0 0 0 0 0 0 0 0 0 127 0" result="hardAlpha"/>
<feOffset dx="1" dy="2"/>
<feGaussianBlur stdDeviation="2"/>
<feComposite in2="hardAlpha" operator="out"/>
<feColorMatrix type="matrix" values="0 0 0 0 0.25494 0 0 0 0 0.189271 0 0 0 0 0.658333 0 0 0 0.5 0"/>
<feBlend mode="normal" in2="BackgroundImageFix" result="effect1_dropShadow_290_2077"/>
<feBlend mode="normal" in="SourceGraphic" in2="effect1_dropShadow_290_2077" result="shape"/>
</filter>
<filter id="filter1_d_290_2077" x="0" y="0" width="29" height="25" filterUnits="userSpaceOnUse" color-interpolation-filters="sRGB">
<feFlood flood-opacity="0" result="BackgroundImageFix"/>
<feColorMatrix in="SourceAlpha" type="matrix" values="0 0 0 0 0 0 0 0 0 0 0 0 0 0 0 0 0 0 127 0" result="hardAlpha"/>
<feOffset dx="2" dy="3"/>
<feGaussianBlur stdDeviation="2"/>
<feComposite in2="hardAlpha" operator="out"/>
<feColorMatrix type="matrix" values="0 0 0 0 0.172676 0 0 0 0 0.159722 0 0 0 0 0.833333 0 0 0 0.33 0"/>
<feBlend mode="normal" in2="BackgroundImageFix" result="effect1_dropShadow_290_2077"/>
<feBlend mode="normal" in="SourceGraphic" in2="effect1_dropShadow_290_2077" result="shape"/>
</filter>
</defs>
</svg>
